<?xml version="1.0" encoding="UTF-8" standalone="no"?>
<!DOCTYPE svg PUBLIC "-//W3C//DTD SVG 1.1//EN" "http://www.w3.org/Graphics/SVG/1.1/DTD/svg11.dtd">
<svg width="100%" height="100%" viewBox="0 0 119 186" version="1.1" xmlns="http://www.w3.org/2000/svg" xmlns:xlink="http://www.w3.org/1999/xlink" xml:space="preserve" xmlns:serif="http://www.serif.com/" style="fill-rule:evenodd;clip-rule:evenodd;stroke-linejoin:round;stroke-miterlimit:2;">
    <g transform="matrix(1,0,0,1,-11514.3,-3004.76)">
        <g transform="matrix(1,0,0,1,139.347,-286.214)">
            <g transform="matrix(1,0,0,1,139.239,49.2827)">
                <g transform="matrix(1,0,0,1,-139.347,286.214)">
                    <path d="M11430.4,3112.4L11438.4,3112.27C11438.6,3120.45 11438.5,3128.53 11442.2,3138.73L11434.7,3141.47C11430.6,3130.26 11430.6,3121.39 11430.4,3112.4Z" style="fill:rgb(5,74,41);"/>
                </g>
                <g transform="matrix(0.473358,1.55476e-17,-4.65269e-17,0.280081,6318.38,2483.53)">
                    <path d="M10542.3,3265.51C10523.8,3277.37 10503.4,3277.37 10485,3265.51C10429.4,3230.71 10404.8,3192.51 10394.1,3133.71L10406.6,3133.22C10386.5,3100.67 10388.3,3045.84 10388.3,2997.93C10388.3,2991.13 10388.6,2984.38 10389,2977.69L10403.4,2976.48C10402,2944.13 10405.1,2903.79 10421.8,2868.59L10441.3,2890.56C10439.5,2851.53 10452,2812.8 10467.1,2781.05L10481.3,2805.3C10480.1,2761.36 10498.7,2728.19 10508.2,2714.21C10511.3,2709.71 10515.9,2709.71 10519,2714.2C10528.6,2728.19 10547.2,2761.36 10546,2805.3L10560.1,2781.05C10575.3,2812.8 10587.8,2851.53 10586,2890.56L10605.5,2868.59C10622.1,2903.79 10625.3,2944.13 10623.8,2976.48L10638.3,2977.69C10638.7,2984.38 10638.9,2991.13 10638.9,2997.93C10638.9,3045.84 10640.8,3100.67 10620.7,3133.22L10633.1,3133.71C10622.5,3192.51 10597.8,3230.71 10542.3,3265.51Z" style="fill:rgb(42,145,52);"/>
                    <clipPath id="_clip1">
                        <path d="M10542.3,3265.51C10523.8,3277.37 10503.4,3277.37 10485,3265.51C10429.4,3230.71 10404.8,3192.51 10394.1,3133.71L10406.6,3133.22C10386.5,3100.67 10388.3,3045.84 10388.3,2997.93C10388.3,2991.13 10388.6,2984.38 10389,2977.69L10403.4,2976.48C10402,2944.13 10405.1,2903.79 10421.8,2868.59L10441.3,2890.56C10439.5,2851.53 10452,2812.8 10467.1,2781.05L10481.3,2805.3C10480.1,2761.36 10498.7,2728.19 10508.2,2714.21C10511.3,2709.71 10515.9,2709.71 10519,2714.2C10528.6,2728.19 10547.2,2761.36 10546,2805.3L10560.1,2781.05C10575.3,2812.8 10587.8,2851.53 10586,2890.56L10605.5,2868.59C10622.1,2903.79 10625.3,2944.13 10623.8,2976.48L10638.3,2977.69C10638.7,2984.38 10638.9,2991.13 10638.9,2997.93C10638.9,3045.84 10640.8,3100.67 10620.7,3133.22L10633.1,3133.71C10622.5,3192.51 10597.8,3230.71 10542.3,3265.51Z"/>
                    </clipPath>
                    <g clip-path="url(#_clip1)">
                        <g transform="matrix(2.11257,-1.17271e-16,3.50938e-16,3.57039,-13802.8,-5703.04)">
                            <path d="M11513.9,2514.39L11506.9,2514.44C11506.9,2514.44 11505.9,2363.34 11506.9,2348.72L11513.8,2349.2C11512.9,2363.77 11513.9,2514.39 11513.9,2514.39Z" style="fill:rgb(5,74,41);"/>
                        </g>
                    </g>
                </g>
                <g transform="matrix(1,0,0,1,-139.347,286.214)">
                    <path d="M11436.1,3092.41L11431.9,3098.07L11396.5,3072.35L11400.6,3066.69L11436.1,3092.41Z" style="fill:rgb(5,74,41);"/>
                </g>
                <g transform="matrix(-1,0,0,1,22729.6,276.434)">
                    <path d="M11431.9,3098.07L11436.1,3092.41L11400.6,3066.69L11396.5,3072.35L11431.9,3098.07Z" style="fill:rgb(5,74,41);"/>
                </g>
                <g transform="matrix(1,0,0,1,-138.881,222.664)">
                    <path d="M11436.4,3092.69L11431.6,3097.79L11409.7,3077.2L11414.5,3072.1L11436.4,3092.69Z" style="fill:rgb(5,74,41);"/>
                </g>
                <g transform="matrix(-1,0,0,1,22729.1,212.884)">
                    <path d="M11431.6,3097.79L11436.4,3092.69L11414.5,3072.1L11409.7,3077.2L11431.6,3097.79Z" style="fill:rgb(5,74,41);"/>
                </g>
                <g transform="matrix(1,0,0,1,-139.347,256.371)">
                    <path d="M11436.1,3092.43L11431.9,3098.05L11389,3066.2L11393.2,3060.58L11436.1,3092.43Z" style="fill:rgb(5,74,41);"/>
                </g>
                <g transform="matrix(-1,0,0,1,22729.6,246.591)">
                    <path d="M11431.9,3098.05L11436.1,3092.43L11393.2,3060.58L11389,3066.2L11431.9,3098.05Z" style="fill:rgb(5,74,41);"/>
                </g>
            </g>
        </g>
    </g>
</svg>
