<?xml version="1.0" encoding="UTF-8" standalone="no"?>
<!DOCTYPE svg PUBLIC "-//W3C//DTD SVG 1.1//EN" "http://www.w3.org/Graphics/SVG/1.1/DTD/svg11.dtd">
<svg width="100%" height="100%" viewBox="0 0 117 181" version="1.1" xmlns="http://www.w3.org/2000/svg" xmlns:xlink="http://www.w3.org/1999/xlink" xml:space="preserve" xmlns:serif="http://www.serif.com/" style="fill-rule:evenodd;clip-rule:evenodd;stroke-linejoin:round;stroke-miterlimit:1.5;">
    <g transform="matrix(1,0,0,1,-11441.5,-3258.82)">
        <g transform="matrix(1,0,0,1,139.347,-286.214)">
            <g transform="matrix(1,0,0,1,82.0761,252.48)">
                <path d="M11278.3,3292.55C11278.4,3336.29 11409.2,3437.32 11278.3,3451.43C11147.3,3437.32 11278.1,3336.29 11278.3,3292.55Z" style="fill:rgb(132,190,54);"/>
                <clipPath id="_clip1">
                    <path d="M11278.3,3292.55C11278.4,3336.29 11409.2,3437.32 11278.3,3451.43C11147.3,3437.32 11278.1,3336.29 11278.3,3292.55Z"/>
                </clipPath>
                <g clip-path="url(#_clip1)">
                    <g transform="matrix(1,0,0,1,-82.0761,-252.48)">
                        <g transform="matrix(1,0,0,1,-218.912,292.506)">
                            <rect x="11577.2" y="3246.24" width="4" height="171.462" style="fill:rgb(5,74,41);"/>
                        </g>
                        <g transform="matrix(1,0,0,1,-207.195,303.647)">
                            <path d="M11569.6,3389.18L11567.7,3385.68L11609,3362.87L11611,3366.38L11569.6,3389.18Z" style="fill:rgb(5,74,41);"/>
                        </g>
                        <g transform="matrix(-1,0,0,1,22927.9,296.479)">
                            <path d="M11567.7,3385.68L11569.6,3389.18L11611,3366.38L11609,3362.87L11567.7,3385.68Z" style="fill:rgb(5,74,41);"/>
                        </g>
                        <g transform="matrix(1,0,0,1,-207.195,289.197)">
                            <path d="M11569.6,3389.18L11567.7,3385.68L11615.3,3359.42L11617.2,3362.93L11569.6,3389.18Z" style="fill:rgb(5,74,41);"/>
                        </g>
                        <g transform="matrix(-1,0,0,1,22927.9,282.028)">
                            <path d="M11567.7,3385.68L11569.6,3389.18L11617.2,3362.93L11615.3,3359.42L11567.7,3385.68Z" style="fill:rgb(5,74,41);"/>
                        </g>
                        <g transform="matrix(1,0,0,1,-207.195,276.069)">
                            <path d="M11569.6,3389.18L11567.7,3385.68L11606.7,3364.07L11608.6,3367.57L11569.6,3389.18Z" style="fill:rgb(5,74,41);"/>
                        </g>
                        <g transform="matrix(-1,0,0,1,22927.9,268.901)">
                            <path d="M11567.7,3385.68L11569.6,3389.18L11608.6,3367.57L11606.7,3364.07L11567.7,3385.68Z" style="fill:rgb(5,74,41);"/>
                        </g>
                        <g transform="matrix(1,0,0,1,-207.195,259.848)">
                            <path d="M11569.6,3389.18L11567.7,3385.68L11601.3,3367.12L11603.3,3370.62L11569.6,3389.18Z" style="fill:rgb(5,74,41);"/>
                        </g>
                        <g transform="matrix(-1,0,0,1,22927.9,252.679)">
                            <path d="M11567.7,3385.68L11569.6,3389.18L11603.3,3370.62L11601.3,3367.12L11567.7,3385.68Z" style="fill:rgb(5,74,41);"/>
                        </g>
                        <g transform="matrix(1,0,0,1,-208.276,246.219)">
                            <path d="M11569.6,3389.18L11567.7,3385.68L11595.5,3370.34L11597.4,3373.84L11569.6,3389.18Z" style="fill:rgb(5,74,41);"/>
                        </g>
                        <g transform="matrix(-1,0,0,1,22929,239.051)">
                            <path d="M11567.7,3385.68L11569.6,3389.18L11597.4,3373.84L11595.5,3370.34L11567.7,3385.68Z" style="fill:rgb(5,74,41);"/>
                        </g>
                        <g transform="matrix(1,0,0,1,-208.309,227.867)">
                            <path d="M11569.6,3389.18L11567.7,3385.68L11585.6,3375.79L11587.6,3379.29L11569.6,3389.18Z" style="fill:rgb(5,74,41);"/>
                        </g>
                        <g transform="matrix(-1,0,0,1,22929,220.699)">
                            <path d="M11567.7,3385.68L11569.6,3389.18L11587.6,3379.29L11585.6,3375.79L11567.7,3385.68Z" style="fill:rgb(5,74,41);"/>
                        </g>
                        <g transform="matrix(1,0,0,1,-209.358,209.515)">
                            <path d="M11569.6,3389.18L11567.7,3385.68L11579.3,3379.29L11581.2,3382.79L11569.6,3389.18Z" style="fill:rgb(5,74,41);"/>
                        </g>
                        <g transform="matrix(-1,0,0,1,22930.1,202.347)">
                            <path d="M11567.7,3385.68L11569.6,3389.18L11581.2,3382.79L11579.3,3379.29L11567.7,3385.68Z" style="fill:rgb(5,74,41);"/>
                        </g>
                    </g>
                </g>
            </g>
        </g>
        <g transform="matrix(1,0,0,1,139.347,-286.214)">
            <g transform="matrix(1,0,0,1,-139.38,286.445)">
                <path d="M11499.7,3415.81C11499.6,3425.03 11501.6,3432.13 11505.5,3437.25" style="fill:none;stroke:rgb(5,74,41);stroke-width:4px;"/>
            </g>
        </g>
    </g>
</svg>
