<?xml version="1.0" encoding="UTF-8" standalone="no"?>
<!DOCTYPE svg PUBLIC "-//W3C//DTD SVG 1.1//EN" "http://www.w3.org/Graphics/SVG/1.1/DTD/svg11.dtd">
<svg width="100%" height="100%" viewBox="0 0 1098 865" version="1.1" xmlns="http://www.w3.org/2000/svg" xmlns:xlink="http://www.w3.org/1999/xlink" xml:space="preserve" xmlns:serif="http://www.serif.com/" style="fill-rule:evenodd;clip-rule:evenodd;stroke-linejoin:round;stroke-miterlimit:2;">
    <g transform="matrix(1,0,0,1,-678.716,-2194.38)">
        <g transform="matrix(0.71354,-0.281437,0.281437,0.71354,-68.1041,2088.9)">
            <g transform="matrix(0.206749,0.978394,-0.978394,0.206749,2330.67,-497.358)">
                <path d="M1445.56,1852.92C1436.08,1864.42 1426.53,1870.98 1417.15,1874.37C1396,1882.03 1375,1873.25 1354.66,1864.21C1341.32,1858.28 1328.42,1851.95 1315.7,1855.6C1307.6,1857.92 1300,1864.54 1292.22,1877.14C1284.67,1889.36 1282.07,1897.38 1284.59,1903.55C1287.07,1909.61 1293.86,1912.87 1301.64,1916.31C1315.9,1922.61 1333.77,1927.85 1347.83,1937.24C1373.09,1954.08 1374.36,1981.63 1364.87,2002.9C1358.66,2016.82 1342.92,2023.09 1322.33,2022.12C1282.88,2020.28 1225,1993.03 1211.8,1979.53C1162.03,1928.65 1185.61,1852.11 1229.49,1803.91C1280.37,1748.02 1371.61,1743.48 1421.83,1766.62C1444.32,1776.97 1458.69,1792.94 1460.64,1811.46C1461.96,1823.94 1457.83,1838.05 1445.56,1852.92ZM1430.9,1840.82C1439.08,1830.9 1442.62,1821.79 1441.74,1813.46C1440.4,1800.77 1429.28,1790.98 1413.88,1783.88C1369.41,1763.4 1288.6,1767.23 1243.55,1816.7C1206.1,1857.84 1182.92,1922.81 1225.39,1966.24C1237.04,1978.15 1288.39,2001.5 1323.21,2003.13C1329.73,2003.44 1335.61,2002.99 1340.33,2001.23C1343.57,2000.03 1346.16,1998.18 1347.51,1995.16C1353.57,1981.57 1353.42,1963.81 1337.29,1953.05C1324.12,1944.27 1307.3,1939.59 1293.96,1933.7C1281.02,1927.98 1271.11,1920.83 1266.99,1910.74C1262.91,1900.76 1263.81,1886.95 1276.04,1867.15C1287.16,1849.14 1298.88,1840.65 1310.46,1837.32C1327.28,1832.5 1344.73,1838.99 1362.38,1846.83C1378.2,1853.87 1394.22,1862.45 1410.68,1856.5C1417.41,1854.06 1424.08,1849.09 1430.9,1840.82Z" style="fill:rgb(160,64,31);"/>
            </g>
            <g id="feuille-Site-W-V2.svg" transform="matrix(0.081627,0.710488,-0.710488,0.081627,1012.12,986.256)">
                <g transform="matrix(1,0,0,1,-64.5,-89)">
                    <clipPath id="_clip1">
                        <rect x="0" y="0" width="129" height="178"/>
                    </clipPath>
                    <g clip-path="url(#_clip1)">
                        <g transform="matrix(0.303031,0,0,0.303031,-3508.36,-966.254)">
                            <g>
                                <g>
                                    <g transform="matrix(1,0,0,1,1208.78,821.3)">
                                        <path d="M10465.1,2786.51L10490.4,2813.48C10490.4,2813.48 10431.4,2869.07 10403.8,2953.73L10368.6,2942.27C10399.3,2848.17 10465.1,2786.51 10465.1,2786.51Z" style="fill:rgb(5,74,41);"/>
                                    </g>
                                    <g transform="matrix(0.978197,0.564762,-0.5,0.866025,3032.44,-5093.32)">
                                        <path d="M10513.6,2706.93C10513.6,2706.93 10661.7,2794.89 10641,2997.93C10626.2,3143.12 10492.8,3271.66 10482.4,3279.5C10482.4,3279.5 10363.3,3219.68 10386.2,2997.93C10402.7,2838.41 10513.6,2706.93 10513.6,2706.93Z" style="fill:rgb(42,145,52);"/>
                                        <g>
                                            <clipPath id="_clip2">
                                                <path d="M10513.6,2706.93C10513.6,2706.93 10661.7,2794.89 10641,2997.93C10626.2,3143.12 10492.8,3271.66 10482.4,3279.5C10482.4,3279.5 10363.3,3219.68 10386.2,2997.93C10402.7,2838.41 10513.6,2706.93 10513.6,2706.93Z"/>
                                            </clipPath>
                                            <g clip-path="url(#_clip2)">
                                                <g transform="matrix(0.766717,-0.5,0.442664,0.866025,919.654,6282.52)">
                                                    <path d="M10861.2,2804.3L10850.3,2795.69C10973.5,2639.39 11078.9,2480.31 11166.5,2318.44L11178.7,2325.07C11090.8,2487.61 10984.9,2647.35 10861.2,2804.3Z" style="fill:rgb(5,74,41);"/>
                                                </g>
                                            </g>
                                        </g>
                                    </g>
                                    <g transform="matrix(1,0,0,1,790.13,866.204)">
                                        <g>
                                            <g transform="matrix(0.966948,0.324449,-0.286787,0.97878,1142.73,-3506.94)">
                                                <path d="M10945.2,2683.62L10935.3,2693.46L10859.3,2617.47L10869.2,2607.62L10945.2,2683.62Z" style="fill:rgb(5,74,41);"/>
                                            </g>
                                            <g transform="matrix(0.926964,0.425434,-0.389243,0.942733,1919.96,-4573.5)">
                                                <path d="M10933.1,2670.22L10923.3,2680.13L10832.4,2590.56L10842.2,2580.66L10933.1,2670.22Z" style="fill:rgb(5,74,41);"/>
                                            </g>
                                            <g transform="matrix(0.962413,0.337665,-0.300169,0.974759,1384.51,-3789.6)">
                                                <path d="M10909.4,2653.17L10899.2,2662.61L10839.9,2598.03L10850.1,2588.58L10909.4,2653.17Z" style="fill:rgb(5,74,41);"/>
                                            </g>
                                        </g>
                                    </g>
                                    <g transform="matrix(-1,0,0,-1,22846,5999.54)">
                                        <g>
                                            <g transform="matrix(0.56786,-0.831132,0.838484,0.556947,2500.71,10259.5)">
                                                <path d="M10958.7,2683.8L10949.7,2694.38L10859.7,2617.84L10868.8,2607.26L10958.7,2683.8Z" style="fill:rgb(5,74,41);"/>
                                            </g>
                                            <g transform="matrix(0.722518,-0.719877,0.747298,0.694119,1149.13,8554.04)">
                                                <path d="M10933.1,2670.22L10923.3,2680.13L10832.4,2590.56L10842.2,2580.66L10933.1,2670.22Z" style="fill:rgb(5,74,41);"/>
                                            </g>
                                            <g transform="matrix(0.98328,-0.766206,0.747343,0.886092,-1599.4,8451.08)">
                                                <path d="M10909.4,2653.17L10899.2,2662.61L10839.9,2598.03L10850.1,2588.58L10909.4,2653.17Z" style="fill:rgb(5,74,41);"/>
                                            </g>
                                        </g>
                                    </g>
                                </g>
                            </g>
                        </g>
                    </g>
                </g>
            </g>
            <g id="feuille-Site-W-V2.svg1" serif:id="feuille-Site-W-V2.svg" transform="matrix(0.540949,-0.467793,0.467793,0.540949,957.141,894.792)">
                <g transform="matrix(1,0,0,1,-64.5,-89)">
                    <clipPath id="_clip3">
                        <rect x="0" y="0" width="129" height="178"/>
                    </clipPath>
                    <g clip-path="url(#_clip3)">
                        <g transform="matrix(0.303031,0,0,0.303031,-3508.36,-966.254)">
                            <g>
                                <g>
                                    <g transform="matrix(1,0,0,1,1208.78,821.3)">
                                        <path d="M10465.1,2786.51L10490.4,2813.48C10490.4,2813.48 10431.4,2869.07 10403.8,2953.73L10368.6,2942.27C10399.3,2848.17 10465.1,2786.51 10465.1,2786.51Z" style="fill:rgb(5,74,41);"/>
                                    </g>
                                    <g transform="matrix(0.978197,0.564762,-0.5,0.866025,3032.44,-5093.32)">
                                        <path d="M10513.6,2706.93C10513.6,2706.93 10661.7,2794.89 10641,2997.93C10626.2,3143.12 10492.8,3271.66 10482.4,3279.5C10482.4,3279.5 10363.3,3219.68 10386.2,2997.93C10402.7,2838.41 10513.6,2706.93 10513.6,2706.93Z" style="fill:rgb(42,145,52);"/>
                                        <g>
                                            <clipPath id="_clip4">
                                                <path d="M10513.6,2706.93C10513.6,2706.93 10661.7,2794.89 10641,2997.93C10626.2,3143.12 10492.8,3271.66 10482.4,3279.5C10482.4,3279.5 10363.3,3219.68 10386.2,2997.93C10402.7,2838.41 10513.6,2706.93 10513.6,2706.93Z"/>
                                            </clipPath>
                                            <g clip-path="url(#_clip4)">
                                                <g transform="matrix(0.766717,-0.5,0.442664,0.866025,919.654,6282.52)">
                                                    <path d="M10861.2,2804.3L10850.3,2795.69C10973.5,2639.39 11078.9,2480.31 11166.5,2318.44L11178.7,2325.07C11090.8,2487.61 10984.9,2647.35 10861.2,2804.3Z" style="fill:rgb(5,74,41);"/>
                                                </g>
                                            </g>
                                        </g>
                                    </g>
                                    <g transform="matrix(1,0,0,1,790.13,866.204)">
                                        <g>
                                            <g transform="matrix(0.966948,0.324449,-0.286787,0.97878,1142.73,-3506.94)">
                                                <path d="M10945.2,2683.62L10935.3,2693.46L10859.3,2617.47L10869.2,2607.62L10945.2,2683.62Z" style="fill:rgb(5,74,41);"/>
                                            </g>
                                            <g transform="matrix(0.926964,0.425434,-0.389243,0.942733,1919.96,-4573.5)">
                                                <path d="M10933.1,2670.22L10923.3,2680.13L10832.4,2590.56L10842.2,2580.66L10933.1,2670.22Z" style="fill:rgb(5,74,41);"/>
                                            </g>
                                            <g transform="matrix(0.962413,0.337665,-0.300169,0.974759,1384.51,-3789.6)">
                                                <path d="M10909.4,2653.17L10899.2,2662.61L10839.9,2598.03L10850.1,2588.58L10909.4,2653.17Z" style="fill:rgb(5,74,41);"/>
                                            </g>
                                        </g>
                                    </g>
                                    <g transform="matrix(-1,0,0,-1,22846,5999.54)">
                                        <g>
                                            <g transform="matrix(0.56786,-0.831132,0.838484,0.556947,2500.71,10259.5)">
                                                <path d="M10958.7,2683.8L10949.7,2694.38L10859.7,2617.84L10868.8,2607.26L10958.7,2683.8Z" style="fill:rgb(5,74,41);"/>
                                            </g>
                                            <g transform="matrix(0.722518,-0.719877,0.747298,0.694119,1149.13,8554.04)">
                                                <path d="M10933.1,2670.22L10923.3,2680.13L10832.4,2590.56L10842.2,2580.66L10933.1,2670.22Z" style="fill:rgb(5,74,41);"/>
                                            </g>
                                            <g transform="matrix(0.98328,-0.766206,0.747343,0.886092,-1599.4,8451.08)">
                                                <path d="M10909.4,2653.17L10899.2,2662.61L10839.9,2598.03L10850.1,2588.58L10909.4,2653.17Z" style="fill:rgb(5,74,41);"/>
                                            </g>
                                        </g>
                                    </g>
                                </g>
                            </g>
                        </g>
                    </g>
                </g>
            </g>
            <g transform="matrix(0.199479,0.979902,-0.979902,0.199479,1986.33,279.026)">
                <path d="M470.168,1130.77C546.053,1108.79 607.794,1143.65 630.837,1178.33C642.477,1195.85 644.409,1213.67 636.882,1226.27C629.63,1238.41 621.331,1244.87 612.752,1247.8C604.534,1250.62 595.829,1250.25 586.849,1247.61C575.638,1244.3 563.848,1237.26 552.175,1229.98C542.367,1223.87 532.646,1217.6 523.37,1214.18C518.053,1212.22 512.976,1211.15 508.219,1212.5C503.546,1213.83 499.499,1217.55 495.655,1223.94C492.958,1228.42 491.749,1232.22 492.144,1235.65C492.75,1240.91 496.85,1244.75 501.738,1248.39C509.342,1254.06 519.221,1258.69 528.067,1263.29C536.849,1267.87 544.699,1272.54 549.591,1277.62C556.92,1285.23 559.287,1293.75 554.091,1304C549.395,1313.26 543.491,1318.68 537.134,1321.67C531.02,1324.55 524.328,1325.22 517.296,1324.19C508.709,1322.93 499.486,1318.99 490.488,1314.38C481.347,1309.69 472.448,1304.3 464.827,1301.62C463.154,1301.03 461.576,1300.58 460.097,1300.41C458.972,1300.27 457.923,1300.23 457.27,1301.21C452.295,1308.71 450.396,1314.56 451.533,1319.58C452.629,1324.42 456.387,1328.02 460.885,1331.35C469.135,1337.45 480.061,1342.17 489.528,1347.08C497.515,1351.22 504.567,1355.58 509.198,1360.46C513.478,1364.96 515.98,1369.99 516.47,1375.55C516.957,1381.09 515.47,1387.45 510.397,1394.65C497.216,1413.35 476.083,1417.63 453.77,1414.06C424.22,1409.33 392.819,1390.63 381.379,1382.11C350.802,1359.35 339.124,1319.68 344.845,1277.7C353.123,1216.96 397.886,1151.71 470.168,1130.77ZM475.457,1149.03C410.936,1167.72 371.073,1226.05 363.684,1280.27C358.96,1314.93 367.485,1348.07 392.733,1366.86C402.863,1374.4 430.61,1391.09 456.777,1395.29C471.614,1397.66 486.091,1396.13 494.856,1383.7C496.63,1381.18 497.701,1379.15 497.531,1377.22C497.259,1374.13 494.302,1372.19 491.029,1369.92C484.734,1365.56 476.258,1361.73 467.997,1357.53C452.618,1349.71 438.452,1340.17 433.923,1327.05C430.624,1317.5 431.522,1305.63 441.428,1290.7C446.134,1283.61 452.619,1280.94 460.49,1281.37C468.103,1281.78 477.759,1286.1 488.004,1291.55C496.341,1295.98 505.24,1301.08 513.803,1303.86C519.369,1305.66 524.714,1306.68 529.348,1304.32C532.371,1302.79 534.883,1299.84 537.135,1295.4C538.662,1292.39 536.005,1290.6 533.237,1288.48C526.666,1283.42 516.777,1278.98 507.313,1273.97C497.977,1269.02 489.039,1263.55 482.874,1257.08C477.761,1251.72 474.398,1245.64 473.381,1238.78C472.329,1231.67 473.725,1223.51 479.364,1214.13C486.364,1202.5 494.521,1196.62 503.031,1194.21C511.457,1191.82 520.529,1192.87 529.947,1196.34C540.314,1200.17 551.265,1207.02 562.228,1213.85C569.654,1218.47 577.093,1223.07 584.383,1226.38C592.489,1230.06 600.266,1232.41 607.461,1229.49C612.234,1227.55 616.489,1223.34 620.558,1216.52C623.22,1212.07 622.877,1206.41 620.838,1200.39C618.198,1192.59 612.64,1184.38 604.855,1176.65C579.769,1151.77 532.026,1132.65 475.457,1149.03Z" style="fill:rgb(160,64,31);"/>
            </g>
            <g transform="matrix(0.0134282,1.09079,-1.09079,0.0134282,2687.96,-566.285)">
                <path d="M1776.15,1679.28C1828.72,1682.45 1860.92,1716.42 1871.8,1757.9C1887.96,1819.5 1856.62,1897.82 1774.6,1915C1729.26,1924.5 1696.75,1914.86 1675.61,1895.46C1644.01,1866.45 1637.58,1814.76 1652.87,1769.05C1669.8,1718.42 1713.02,1675.47 1776.15,1679.28ZM1775.46,1690.72C1718.09,1687.25 1679.11,1726.67 1663.73,1772.68C1649.92,1813.97 1654.81,1860.82 1683.35,1887.02C1702.31,1904.41 1731.6,1912.31 1772.25,1903.79C1846.9,1888.15 1875.43,1816.87 1860.72,1760.8C1851.02,1723.83 1822.32,1693.54 1775.46,1690.72Z" style="fill:rgb(160,64,31);"/>
                <path d="M1780.04,1727.88C1801.95,1731.28 1816.59,1740.25 1825.51,1752.03C1838.87,1769.69 1839.49,1794.11 1831.1,1817.41C1817.44,1855.37 1779.99,1889.75 1739.85,1885.67C1711.88,1882.82 1694.32,1854.35 1691.51,1821.56C1689.05,1792.93 1697.77,1761.5 1719.03,1743.04C1733.42,1730.55 1753.54,1723.77 1780.04,1727.88ZM1778.28,1739.2C1755.84,1735.72 1738.72,1741.11 1726.53,1751.69C1707.92,1767.84 1700.77,1795.52 1702.92,1820.58C1705.23,1847.46 1718.08,1871.94 1741.01,1874.27C1776.2,1877.86 1808.35,1846.81 1820.33,1813.53C1827.33,1794.09 1827.52,1773.67 1816.37,1758.94C1808.94,1749.12 1796.55,1742.03 1778.28,1739.2Z" style="fill:rgb(160,64,31);"/>
            </g>
            <g transform="matrix(0.642839,-0.211469,0.211469,0.642839,-164.813,785.81)">
                <path d="M1776.36,1675.79C1830.68,1679.06 1863.95,1714.16 1875.19,1757.01C1891.79,1820.31 1859.59,1900.78 1775.32,1918.43C1728.54,1928.23 1695.05,1918.06 1673.24,1898.04C1640.7,1868.18 1633.81,1815 1649.54,1767.94C1666.95,1715.89 1711.46,1671.87 1776.36,1675.79ZM1775.25,1694.21C1719.64,1690.86 1681.97,1729.2 1667.05,1773.8C1653.7,1813.73 1658.12,1859.1 1685.72,1884.44C1704.01,1901.22 1732.31,1908.58 1771.54,1900.36C1843.93,1885.2 1871.59,1816.07 1857.33,1761.69C1848,1726.1 1820.37,1696.93 1775.25,1694.21Z" style="fill:rgb(160,64,31);"/>
                <path d="M1780.57,1724.41C1803.61,1727.99 1818.93,1737.53 1828.3,1749.91C1842.34,1768.47 1843.22,1794.11 1834.4,1818.6C1820.22,1857.99 1781.15,1893.39 1739.49,1889.15C1709.98,1886.15 1690.98,1856.46 1688.02,1821.86C1685.46,1792.14 1694.66,1759.55 1716.73,1740.4C1731.79,1727.32 1752.83,1720.11 1780.57,1724.41ZM1777.74,1742.66C1756.55,1739.37 1740.34,1744.35 1728.83,1754.34C1711.03,1769.79 1704.35,1796.32 1706.41,1820.28C1708.56,1845.36 1719.97,1868.61 1741.36,1870.79C1775.04,1874.22 1805.57,1844.19 1817.03,1812.34C1823.6,1794.09 1824.05,1774.89 1813.58,1761.05C1806.61,1751.84 1794.89,1745.32 1777.74,1742.66Z" style="fill:rgb(160,64,31);"/>
            </g>
            <g id="feuille-Site-W-V2.svg2" serif:id="feuille-Site-W-V2.svg" transform="matrix(0.342149,-0.628005,0.628005,0.342149,1006.66,1503.51)">
                <g transform="matrix(1,0,0,1,-64.5,-89)">
                    <clipPath id="_clip5">
                        <rect x="0" y="0" width="129" height="178"/>
                    </clipPath>
                    <g clip-path="url(#_clip5)">
                        <g transform="matrix(0.303031,0,0,0.303031,-3508.36,-966.254)">
                            <g>
                                <g>
                                    <g transform="matrix(1,0,0,1,1208.78,821.3)">
                                        <path d="M10465.1,2786.51L10490.4,2813.48C10490.4,2813.48 10431.4,2869.07 10403.8,2953.73L10368.6,2942.27C10399.3,2848.17 10465.1,2786.51 10465.1,2786.51Z" style="fill:rgb(5,74,41);"/>
                                    </g>
                                    <g transform="matrix(0.978197,0.564762,-0.5,0.866025,3032.44,-5093.32)">
                                        <path d="M10513.6,2706.93C10513.6,2706.93 10661.7,2794.89 10641,2997.93C10626.2,3143.12 10492.8,3271.66 10482.4,3279.5C10482.4,3279.5 10363.3,3219.68 10386.2,2997.93C10402.7,2838.41 10513.6,2706.93 10513.6,2706.93Z" style="fill:rgb(42,145,52);"/>
                                        <g>
                                            <clipPath id="_clip6">
                                                <path d="M10513.6,2706.93C10513.6,2706.93 10661.7,2794.89 10641,2997.93C10626.2,3143.12 10492.8,3271.66 10482.4,3279.5C10482.4,3279.5 10363.3,3219.68 10386.2,2997.93C10402.7,2838.41 10513.6,2706.93 10513.6,2706.93Z"/>
                                            </clipPath>
                                            <g clip-path="url(#_clip6)">
                                                <g transform="matrix(0.766717,-0.5,0.442664,0.866025,919.654,6282.52)">
                                                    <path d="M10861.2,2804.3L10850.3,2795.69C10973.5,2639.39 11078.9,2480.31 11166.5,2318.44L11178.7,2325.07C11090.8,2487.61 10984.9,2647.35 10861.2,2804.3Z" style="fill:rgb(5,74,41);"/>
                                                </g>
                                            </g>
                                        </g>
                                    </g>
                                    <g transform="matrix(1,0,0,1,790.13,866.204)">
                                        <g>
                                            <g transform="matrix(0.966948,0.324449,-0.286787,0.97878,1142.73,-3506.94)">
                                                <path d="M10945.2,2683.62L10935.3,2693.46L10859.3,2617.47L10869.2,2607.62L10945.2,2683.62Z" style="fill:rgb(5,74,41);"/>
                                            </g>
                                            <g transform="matrix(0.926964,0.425434,-0.389243,0.942733,1919.96,-4573.5)">
                                                <path d="M10933.1,2670.22L10923.3,2680.13L10832.4,2590.56L10842.2,2580.66L10933.1,2670.22Z" style="fill:rgb(5,74,41);"/>
                                            </g>
                                            <g transform="matrix(0.962413,0.337665,-0.300169,0.974759,1384.51,-3789.6)">
                                                <path d="M10909.4,2653.17L10899.2,2662.61L10839.9,2598.03L10850.1,2588.58L10909.4,2653.17Z" style="fill:rgb(5,74,41);"/>
                                            </g>
                                        </g>
                                    </g>
                                    <g transform="matrix(-1,0,0,-1,22846,5999.54)">
                                        <g>
                                            <g transform="matrix(0.56786,-0.831132,0.838484,0.556947,2500.71,10259.5)">
                                                <path d="M10958.7,2683.8L10949.7,2694.38L10859.7,2617.84L10868.8,2607.26L10958.7,2683.8Z" style="fill:rgb(5,74,41);"/>
                                            </g>
                                            <g transform="matrix(0.722518,-0.719877,0.747298,0.694119,1149.13,8554.04)">
                                                <path d="M10933.1,2670.22L10923.3,2680.13L10832.4,2590.56L10842.2,2580.66L10933.1,2670.22Z" style="fill:rgb(5,74,41);"/>
                                            </g>
                                            <g transform="matrix(0.98328,-0.766206,0.747343,0.886092,-1599.4,8451.08)">
                                                <path d="M10909.4,2653.17L10899.2,2662.61L10839.9,2598.03L10850.1,2588.58L10909.4,2653.17Z" style="fill:rgb(5,74,41);"/>
                                            </g>
                                        </g>
                                    </g>
                                </g>
                            </g>
                        </g>
                    </g>
                </g>
            </g>
            <g id="feuille-Site-W-V2.svg3" serif:id="feuille-Site-W-V2.svg" transform="matrix(-0.624409,-0.348668,0.348668,-0.624409,979.691,1584.75)">
                <g transform="matrix(1,0,0,1,-64.5,-89)">
                    <clipPath id="_clip7">
                        <rect x="0" y="0" width="129" height="178"/>
                    </clipPath>
                    <g clip-path="url(#_clip7)">
                        <g transform="matrix(0.303031,0,0,0.303031,-3508.36,-966.254)">
                            <g>
                                <g>
                                    <g transform="matrix(1,0,0,1,1208.78,821.3)">
                                        <path d="M10465.1,2786.51L10490.4,2813.48C10490.4,2813.48 10431.4,2869.07 10403.8,2953.73L10368.6,2942.27C10399.3,2848.17 10465.1,2786.51 10465.1,2786.51Z" style="fill:rgb(5,74,41);"/>
                                    </g>
                                    <g transform="matrix(0.978197,0.564762,-0.5,0.866025,3032.44,-5093.32)">
                                        <path d="M10513.6,2706.93C10513.6,2706.93 10661.7,2794.89 10641,2997.93C10626.2,3143.12 10492.8,3271.66 10482.4,3279.5C10482.4,3279.5 10363.3,3219.68 10386.2,2997.93C10402.7,2838.41 10513.6,2706.93 10513.6,2706.93Z" style="fill:rgb(42,145,52);"/>
                                        <g>
                                            <clipPath id="_clip8">
                                                <path d="M10513.6,2706.93C10513.6,2706.93 10661.7,2794.89 10641,2997.93C10626.2,3143.12 10492.8,3271.66 10482.4,3279.5C10482.4,3279.5 10363.3,3219.68 10386.2,2997.93C10402.7,2838.41 10513.6,2706.93 10513.6,2706.93Z"/>
                                            </clipPath>
                                            <g clip-path="url(#_clip8)">
                                                <g transform="matrix(0.766717,-0.5,0.442664,0.866025,919.654,6282.52)">
                                                    <path d="M10861.2,2804.3L10850.3,2795.69C10973.5,2639.39 11078.9,2480.31 11166.5,2318.44L11178.7,2325.07C11090.8,2487.61 10984.9,2647.35 10861.2,2804.3Z" style="fill:rgb(5,74,41);"/>
                                                </g>
                                            </g>
                                        </g>
                                    </g>
                                    <g transform="matrix(1,0,0,1,790.13,866.204)">
                                        <g>
                                            <g transform="matrix(0.966948,0.324449,-0.286787,0.97878,1142.73,-3506.94)">
                                                <path d="M10945.2,2683.62L10935.3,2693.46L10859.3,2617.47L10869.2,2607.62L10945.2,2683.62Z" style="fill:rgb(5,74,41);"/>
                                            </g>
                                            <g transform="matrix(0.926964,0.425434,-0.389243,0.942733,1919.96,-4573.5)">
                                                <path d="M10933.1,2670.22L10923.3,2680.13L10832.4,2590.56L10842.2,2580.66L10933.1,2670.22Z" style="fill:rgb(5,74,41);"/>
                                            </g>
                                            <g transform="matrix(0.962413,0.337665,-0.300169,0.974759,1384.51,-3789.6)">
                                                <path d="M10909.4,2653.17L10899.2,2662.61L10839.9,2598.03L10850.1,2588.58L10909.4,2653.17Z" style="fill:rgb(5,74,41);"/>
                                            </g>
                                        </g>
                                    </g>
                                    <g transform="matrix(-1,0,0,-1,22846,5999.54)">
                                        <g>
                                            <g transform="matrix(0.56786,-0.831132,0.838484,0.556947,2500.71,10259.5)">
                                                <path d="M10958.7,2683.8L10949.7,2694.38L10859.7,2617.84L10868.8,2607.26L10958.7,2683.8Z" style="fill:rgb(5,74,41);"/>
                                            </g>
                                            <g transform="matrix(0.722518,-0.719877,0.747298,0.694119,1149.13,8554.04)">
                                                <path d="M10933.1,2670.22L10923.3,2680.13L10832.4,2590.56L10842.2,2580.66L10933.1,2670.22Z" style="fill:rgb(5,74,41);"/>
                                            </g>
                                            <g transform="matrix(0.98328,-0.766206,0.747343,0.886092,-1599.4,8451.08)">
                                                <path d="M10909.4,2653.17L10899.2,2662.61L10839.9,2598.03L10850.1,2588.58L10909.4,2653.17Z" style="fill:rgb(5,74,41);"/>
                                            </g>
                                        </g>
                                    </g>
                                </g>
                            </g>
                        </g>
                    </g>
                </g>
            </g>
            <g transform="matrix(0.998013,-0.0630124,0.0630124,0.998013,-173.619,-64.4804)">
                <g transform="matrix(0.994545,0.104304,-0.104304,0.994545,183.375,-105.04)">
                    <path d="M1198.26,1737.99C1203.08,1739.79 1208.29,1742.35 1213.26,1745.68C1224.03,1752.91 1233.55,1763.65 1235.85,1777.37C1237.39,1786.56 1235.79,1797.19 1228.79,1809.11C1222.27,1820.23 1204.46,1829.09 1183.21,1834.2C1152.9,1841.48 1115.98,1841.72 1099.88,1834.95C1097.56,1833.98 1096.05,1831.7 1096.06,1829.17C1096.13,1806.19 1092.62,1763.39 1097.39,1726.09C1100.76,1699.72 1108.46,1676.11 1123.43,1662.87C1135.74,1651.98 1155.12,1650.08 1173.45,1654.38C1191.39,1658.58 1208.06,1668.62 1215.68,1680.21C1234.08,1708.18 1214.12,1727.6 1198.26,1737.99ZM1108.53,1824.76C1124.58,1829.39 1154.98,1828.13 1180.3,1822.05C1191.16,1819.44 1201.1,1815.92 1208.5,1811.44C1212.74,1808.87 1216.11,1806.05 1218.02,1802.79C1223.18,1793.99 1224.66,1786.22 1223.53,1779.44C1221.81,1769.2 1214.34,1761.45 1206.29,1756.05C1197.35,1750.05 1187.6,1746.73 1183.27,1747.14C1176.16,1747.81 1175.14,1742.09 1175.16,1740.7C1175.18,1739.58 1175.44,1737.94 1176.97,1736.31C1177.45,1735.8 1178.75,1734.82 1180.82,1733.68C1184.63,1731.58 1192.57,1727.59 1199.45,1721.59C1204.82,1716.91 1209.69,1711 1210.34,1703.56C1210.76,1698.66 1209.27,1693.2 1205.25,1687.07C1199.04,1677.64 1185.19,1669.96 1170.6,1666.54C1156.4,1663.22 1141.25,1663.79 1131.7,1672.23C1118.66,1683.77 1112.72,1704.68 1109.78,1727.67C1105.38,1762.13 1108.22,1801.34 1108.53,1824.76Z" style="fill:rgb(160,64,31);"/>
                </g>
                <g transform="matrix(0.996121,0.0879971,-0.0879971,0.996121,153.129,-100.532)">
                    <path d="M1165.78,1751.17C1180.22,1759.22 1198.59,1772.28 1207.98,1785.06C1213.91,1793.12 1216.32,1801.29 1214.25,1808.37C1212.23,1815.25 1205.83,1821.95 1191.86,1826.24C1186.45,1827.89 1163.1,1833.68 1143.71,1833.63C1134.58,1833.6 1126.28,1832.19 1120.59,1828.97L1120.57,1828.96C1119.42,1828.36 1118.14,1827.28 1117.21,1825.32C1116.21,1823.22 1115.3,1818.1 1115.01,1810.9C1114.14,1789.66 1116.8,1747.39 1122.18,1721.09C1123.91,1712.63 1125.97,1705.73 1128.2,1701.42C1129.6,1698.73 1131.17,1696.83 1132.69,1695.67C1151.44,1681.23 1172.48,1681.15 1186.52,1687.81C1193.09,1690.93 1198.18,1695.53 1201.17,1700.84C1207.78,1712.62 1205.24,1729.12 1181.67,1742.1C1178.09,1744.07 1172.86,1746.49 1168.61,1749.1C1167.68,1749.67 1166.63,1750.48 1165.78,1751.17ZM1128.34,1818.89C1134.14,1821.38 1142.72,1821.47 1151.45,1820.85C1167.39,1819.73 1183.9,1815.61 1188.19,1814.29C1196.45,1811.76 1201.07,1808.93 1202.26,1804.87C1203.38,1801.01 1201.15,1796.85 1197.92,1792.46C1189.24,1780.66 1171.91,1768.77 1158.75,1761.56C1153.94,1758.93 1152.27,1755.68 1151.88,1752.89C1151.47,1749.88 1152.53,1746.6 1155.42,1743.56C1159.73,1739.03 1169.69,1734.44 1175.65,1731.16C1190.25,1723.12 1194.37,1714.26 1190.27,1706.96C1187.77,1702.5 1182.7,1699.12 1176.49,1697.35C1166.11,1694.39 1152.6,1696.11 1140.31,1705.57C1139.64,1706.08 1139.23,1707.21 1138.63,1708.6C1137.06,1712.25 1135.67,1717.45 1134.42,1723.59C1129.23,1749.01 1126.65,1789.86 1127.49,1810.39C1127.62,1813.6 1128.09,1817.15 1128.34,1818.89Z" style="fill:rgb(160,64,31);"/>
                </g>
            </g>
            <g transform="matrix(0.998013,-0.0630124,0.0630124,0.998013,-173.619,-64.4804)">
                <g transform="matrix(0.890223,0,0,1,141.959,4.00954)">
                    <path d="M1254.02,1831.07C1255.15,1834.37 1253.05,1837.87 1249.35,1838.87C1245.64,1839.87 1241.72,1838 1240.59,1834.7C1226.39,1793.03 1217.32,1759.73 1216.29,1734.49C1215.45,1713.93 1219.98,1698.39 1230.49,1687.51C1241.03,1676.6 1257.8,1670.09 1282.56,1668.57C1321.54,1666.18 1342.85,1687.79 1345.43,1710.43C1347.76,1730.8 1335.03,1752.64 1305.34,1759.64C1329.64,1789.45 1354.73,1803.62 1367.38,1818.92C1369.68,1821.69 1369.01,1825.61 1365.89,1827.65C1362.77,1829.69 1358.38,1829.1 1356.08,1826.32C1342.27,1809.63 1313.83,1794.21 1287.55,1758.69C1286.2,1756.87 1286.02,1754.56 1287.06,1752.59C1288.1,1750.62 1290.21,1749.28 1292.64,1749.04C1320.64,1746.32 1333.4,1728.61 1331.47,1711.69C1329.53,1694.67 1312.83,1679.24 1283.52,1681.03C1263.51,1682.26 1249.65,1686.84 1241.13,1695.66C1232.58,1704.5 1229.63,1717.32 1230.31,1734.03C1231.31,1758.48 1240.27,1790.71 1254.02,1831.07Z" style="fill:rgb(160,64,31);"/>
                </g>
                <path d="M1282.53,1758.11C1289.6,1773.65 1318.08,1819.41 1323.69,1825.02C1326.12,1827.45 1326.12,1831.41 1323.69,1833.85C1321.25,1836.29 1317.29,1836.29 1314.85,1833.85C1308.44,1827.44 1274,1771.99 1269.59,1759.47C1268.52,1756.45 1268.8,1754.25 1269.13,1753.25C1269.69,1751.57 1270.71,1750.45 1271.91,1749.71C1277.85,1746.01 1285.43,1743.56 1291.84,1740.27C1295.32,1738.49 1298.47,1736.53 1300.12,1733.37C1301.74,1730.27 1301.65,1726.18 1299.77,1720.44C1295.03,1705.95 1277.19,1700.16 1265.86,1711.13C1257.65,1719.09 1259.11,1728.51 1259.11,1739.26C1259.11,1742.71 1256.31,1745.51 1252.86,1745.51C1249.42,1745.51 1246.62,1742.71 1246.62,1739.26C1246.62,1724.92 1246.22,1712.76 1257.17,1702.16C1275.32,1684.58 1304.05,1693.33 1311.65,1716.55C1314.93,1726.58 1314.03,1733.74 1311.19,1739.16C1308.39,1744.53 1303.46,1748.35 1297.54,1751.39C1292.8,1753.82 1287.37,1755.73 1282.53,1758.11Z" style="fill:rgb(160,64,31);"/>
                <path d="M1261.37,1845.78C1260.23,1847.28 1258.42,1848.25 1256.39,1848.25C1252.95,1848.25 1250.15,1845.45 1250.15,1842C1250.15,1839.14 1251.61,1836.33 1255.23,1834.63C1257.68,1833.49 1262.21,1833.01 1265.9,1832.81C1264.56,1827.3 1261.8,1821.14 1260.66,1816.22C1256.52,1798.45 1248.74,1756.4 1246.58,1738.32C1246.18,1734.89 1248.62,1731.78 1252.05,1731.37C1255.47,1730.97 1258.58,1733.41 1258.99,1736.84C1261.11,1754.6 1268.76,1795.92 1272.82,1813.39C1274.56,1820.82 1279.15,1830.89 1279.15,1838.21C1279.15,1837.87 1279.05,1837.13 1279.05,1837.13C1279.05,1837.13 1278.87,1841.82 1277.29,1843.38C1276.57,1844.08 1275.53,1844.78 1274.09,1845.09C1273.41,1845.23 1271.24,1845.15 1271.24,1845.15C1271.24,1845.15 1271.55,1845.17 1271.65,1845.17C1271.17,1845.17 1267.86,1845.04 1264.54,1845.3C1263.58,1845.37 1262.23,1845.61 1261.37,1845.78Z" style="fill:rgb(160,64,31);"/>
            </g>
            <g transform="matrix(0.998013,-0.0630124,0.0630124,0.998013,-184.921,-37.4425)">
                <path d="M1540.72,1636.26C1541.03,1636.38 1541.33,1636.49 1541.62,1636.58C1572.93,1646.02 1598.46,1647.11 1614.81,1653.44C1627.9,1658.52 1636,1666.49 1638.06,1682.09C1638.96,1688.95 1636.16,1696.5 1630.18,1703.86C1618.65,1718.09 1594.82,1732.35 1572.98,1740.47C1557.8,1746.12 1543.54,1748.67 1534.76,1746.96C1529.19,1745.87 1525.33,1743.18 1523.24,1739.39C1517.09,1728.26 1516.5,1720.13 1518.47,1714.15C1520.46,1708.12 1525.17,1703.77 1531.45,1700.58C1538.68,1696.92 1548.19,1694.84 1555.85,1691.91C1561.67,1689.69 1565.84,1687.5 1568.42,1685.28C1569.04,1684.74 1569.67,1683.92 1569.97,1683.52C1569.78,1683.31 1569.5,1683.01 1569.27,1682.83C1568.41,1682.15 1567.3,1681.53 1565.98,1680.94C1559.54,1678.07 1549.04,1676.3 1535.56,1676C1504.7,1675.33 1488.36,1666.8 1481.98,1655.74C1477.72,1648.34 1477.33,1639.5 1480.49,1629.91C1484.57,1617.57 1494.8,1603.73 1508.88,1590.76C1532.11,1569.35 1566.36,1551.93 1588.55,1550.61C1600.56,1549.89 1609.47,1553.75 1613.69,1561.88C1619.31,1572.72 1615.38,1583.57 1605.4,1593.6C1593.43,1605.62 1572.31,1616.73 1556.38,1625.91C1550.51,1629.29 1545.41,1632.37 1541.94,1635.16C1541.53,1635.49 1541.11,1635.88 1540.72,1636.26ZM1602.6,1567.63C1601.34,1565.22 1598.97,1564 1596.02,1563.42C1591.75,1562.58 1586.47,1563.05 1580.62,1564.39C1560.95,1568.88 1535.52,1583.2 1517.34,1599.95C1505.09,1611.24 1495.9,1623.09 1492.36,1633.83C1490.44,1639.63 1490.22,1645.02 1492.81,1649.5C1495.06,1653.41 1499.28,1656.48 1505.53,1658.83C1512.93,1661.61 1522.91,1663.23 1535.84,1663.51C1554.34,1663.92 1567.99,1667.22 1574.95,1671.58C1579.6,1674.49 1581.92,1678.11 1582.48,1681.66C1583.03,1685.1 1582.09,1688.9 1578.72,1692.66C1575.55,1696.18 1569.62,1700.03 1560.31,1703.58C1554.93,1705.64 1548.62,1707.25 1542.88,1709.31C1537.78,1711.13 1533,1713.03 1530.86,1716.87C1528.8,1720.58 1529.91,1725.62 1534.18,1733.36C1534.49,1733.93 1535.17,1734.14 1535.92,1734.38C1537.08,1734.76 1538.44,1734.94 1539.95,1735C1547.34,1735.32 1557.67,1732.84 1568.63,1728.76C1585.66,1722.43 1604.12,1712.15 1615.64,1701.18C1619.13,1697.85 1621.97,1694.49 1623.79,1691.15C1625.18,1688.6 1625.98,1686.12 1625.67,1683.73C1623.92,1670.5 1615.25,1665.91 1602.13,1662.55C1586.07,1658.43 1564.04,1656.39 1538.02,1648.54C1530.2,1646.18 1527.4,1642.11 1526.84,1638.75C1526.48,1636.64 1526.82,1634.35 1528.14,1631.97C1529.7,1629.16 1533.23,1625.81 1538.32,1622.34C1551.68,1613.25 1577.2,1601.52 1592.73,1588.29C1596.37,1585.19 1599.43,1582.03 1601.46,1578.77C1603.72,1575.14 1604.57,1571.43 1602.6,1567.63Z" style="fill:rgb(160,64,31);"/>
            </g>
            <g id="feuille-Site-W-V2.svg4" serif:id="feuille-Site-W-V2.svg" transform="matrix(0.896231,-1.63487,1.58179,0.867133,1656.13,950.929)">
                <g transform="matrix(1,0,0,1,-64.5,-89)">
                    <clipPath id="_clip9">
                        <rect x="0" y="0" width="129" height="178"/>
                    </clipPath>
                    <g clip-path="url(#_clip9)">
                        <g transform="matrix(0.303031,0,0,0.303031,-3508.36,-966.254)">
                            <g>
                                <g>
                                    <g transform="matrix(1,0,0,1,1208.78,821.3)">
                                        <path d="M10465.1,2786.51L10490.4,2813.48C10490.4,2813.48 10431.4,2869.07 10403.8,2953.73L10368.6,2942.27C10399.3,2848.17 10465.1,2786.51 10465.1,2786.51Z" style="fill:rgb(5,74,41);"/>
                                    </g>
                                    <g transform="matrix(0.978197,0.564762,-0.5,0.866025,3032.44,-5093.32)">
                                        <path d="M10513.6,2706.93C10513.6,2706.93 10661.7,2794.89 10641,2997.93C10626.2,3143.12 10492.8,3271.66 10482.4,3279.5C10482.4,3279.5 10363.3,3219.68 10386.2,2997.93C10402.7,2838.41 10513.6,2706.93 10513.6,2706.93Z" style="fill:rgb(42,145,52);"/>
                                        <g>
                                            <clipPath id="_clip10">
                                                <path d="M10513.6,2706.93C10513.6,2706.93 10661.7,2794.89 10641,2997.93C10626.2,3143.12 10492.8,3271.66 10482.4,3279.5C10482.4,3279.5 10363.3,3219.68 10386.2,2997.93C10402.7,2838.41 10513.6,2706.93 10513.6,2706.93Z"/>
                                            </clipPath>
                                            <g clip-path="url(#_clip10)">
                                                <g transform="matrix(0.766717,-0.5,0.442664,0.866025,919.654,6282.52)">
                                                    <path d="M10861.2,2804.3L10850.3,2795.69C10973.5,2639.39 11078.9,2480.31 11166.5,2318.44L11178.7,2325.07C11090.8,2487.61 10984.9,2647.35 10861.2,2804.3Z" style="fill:rgb(5,74,41);"/>
                                                </g>
                                            </g>
                                        </g>
                                    </g>
                                    <g transform="matrix(1,0,0,1,790.13,866.204)">
                                        <g>
                                            <g transform="matrix(0.966948,0.324449,-0.286787,0.97878,1142.73,-3506.94)">
                                                <path d="M10945.2,2683.62L10935.3,2693.46L10859.3,2617.47L10869.2,2607.62L10945.2,2683.62Z" style="fill:rgb(5,74,41);"/>
                                            </g>
                                            <g transform="matrix(0.926964,0.425434,-0.389243,0.942733,1919.96,-4573.5)">
                                                <path d="M10933.1,2670.22L10923.3,2680.13L10832.4,2590.56L10842.2,2580.66L10933.1,2670.22Z" style="fill:rgb(5,74,41);"/>
                                            </g>
                                            <g transform="matrix(0.962413,0.337665,-0.300169,0.974759,1384.51,-3789.6)">
                                                <path d="M10909.4,2653.17L10899.2,2662.61L10839.9,2598.03L10850.1,2588.58L10909.4,2653.17Z" style="fill:rgb(5,74,41);"/>
                                            </g>
                                        </g>
                                    </g>
                                    <g transform="matrix(-1,0,0,-1,22846,5999.54)">
                                        <g>
                                            <g transform="matrix(0.56786,-0.831132,0.838484,0.556947,2500.71,10259.5)">
                                                <path d="M10958.7,2683.8L10949.7,2694.38L10859.7,2617.84L10868.8,2607.26L10958.7,2683.8Z" style="fill:rgb(5,74,41);"/>
                                            </g>
                                            <g transform="matrix(0.722518,-0.719877,0.747298,0.694119,1149.13,8554.04)">
                                                <path d="M10933.1,2670.22L10923.3,2680.13L10832.4,2590.56L10842.2,2580.66L10933.1,2670.22Z" style="fill:rgb(5,74,41);"/>
                                            </g>
                                            <g transform="matrix(0.98328,-0.766206,0.747343,0.886092,-1599.4,8451.08)">
                                                <path d="M10909.4,2653.17L10899.2,2662.61L10839.9,2598.03L10850.1,2588.58L10909.4,2653.17Z" style="fill:rgb(5,74,41);"/>
                                            </g>
                                        </g>
                                    </g>
                                </g>
                            </g>
                        </g>
                    </g>
                </g>
            </g>
            <g id="feuille-Site-W-V2.svg5" serif:id="feuille-Site-W-V2.svg" transform="matrix(1.78936,0.523652,-0.506651,1.73126,1903.69,1193.47)">
                <g transform="matrix(1,0,0,1,-64.5,-89)">
                    <clipPath id="_clip11">
                        <rect x="0" y="0" width="129" height="178"/>
                    </clipPath>
                    <g clip-path="url(#_clip11)">
                        <g transform="matrix(0.303031,0,0,0.303031,-3508.36,-966.254)">
                            <g>
                                <g>
                                    <g transform="matrix(1,0,0,1,1208.78,821.3)">
                                        <path d="M10465.1,2786.51L10490.4,2813.48C10490.4,2813.48 10431.4,2869.07 10403.8,2953.73L10368.6,2942.27C10399.3,2848.17 10465.1,2786.51 10465.1,2786.51Z" style="fill:rgb(5,74,41);"/>
                                    </g>
                                    <g transform="matrix(0.978197,0.564762,-0.5,0.866025,3032.44,-5093.32)">
                                        <path d="M10513.6,2706.93C10513.6,2706.93 10661.7,2794.89 10641,2997.93C10626.2,3143.12 10492.8,3271.66 10482.4,3279.5C10482.4,3279.5 10363.3,3219.68 10386.2,2997.93C10402.7,2838.41 10513.6,2706.93 10513.6,2706.93Z" style="fill:rgb(42,145,52);"/>
                                        <g>
                                            <clipPath id="_clip12">
                                                <path d="M10513.6,2706.93C10513.6,2706.93 10661.7,2794.89 10641,2997.93C10626.2,3143.12 10492.8,3271.66 10482.4,3279.5C10482.4,3279.5 10363.3,3219.68 10386.2,2997.93C10402.7,2838.41 10513.6,2706.93 10513.6,2706.93Z"/>
                                            </clipPath>
                                            <g clip-path="url(#_clip12)">
                                                <g transform="matrix(0.766717,-0.5,0.442664,0.866025,919.654,6282.52)">
                                                    <path d="M10861.2,2804.3L10850.3,2795.69C10973.5,2639.39 11078.9,2480.31 11166.5,2318.44L11178.7,2325.07C11090.8,2487.61 10984.9,2647.35 10861.2,2804.3Z" style="fill:rgb(5,74,41);"/>
                                                </g>
                                            </g>
                                        </g>
                                    </g>
                                    <g transform="matrix(1,0,0,1,790.13,866.204)">
                                        <g>
                                            <g transform="matrix(0.966948,0.324449,-0.286787,0.97878,1142.73,-3506.94)">
                                                <path d="M10945.2,2683.62L10935.3,2693.46L10859.3,2617.47L10869.2,2607.62L10945.2,2683.62Z" style="fill:rgb(5,74,41);"/>
                                            </g>
                                            <g transform="matrix(0.926964,0.425434,-0.389243,0.942733,1919.96,-4573.5)">
                                                <path d="M10933.1,2670.22L10923.3,2680.13L10832.4,2590.56L10842.2,2580.66L10933.1,2670.22Z" style="fill:rgb(5,74,41);"/>
                                            </g>
                                            <g transform="matrix(0.962413,0.337665,-0.300169,0.974759,1384.51,-3789.6)">
                                                <path d="M10909.4,2653.17L10899.2,2662.61L10839.9,2598.03L10850.1,2588.58L10909.4,2653.17Z" style="fill:rgb(5,74,41);"/>
                                            </g>
                                        </g>
                                    </g>
                                    <g transform="matrix(-1,0,0,-1,22846,5999.54)">
                                        <g>
                                            <g transform="matrix(0.56786,-0.831132,0.838484,0.556947,2500.71,10259.5)">
                                                <path d="M10958.7,2683.8L10949.7,2694.38L10859.7,2617.84L10868.8,2607.26L10958.7,2683.8Z" style="fill:rgb(5,74,41);"/>
                                            </g>
                                            <g transform="matrix(0.722518,-0.719877,0.747298,0.694119,1149.13,8554.04)">
                                                <path d="M10933.1,2670.22L10923.3,2680.13L10832.4,2590.56L10842.2,2580.66L10933.1,2670.22Z" style="fill:rgb(5,74,41);"/>
                                            </g>
                                            <g transform="matrix(0.98328,-0.766206,0.747343,0.886092,-1599.4,8451.08)">
                                                <path d="M10909.4,2653.17L10899.2,2662.61L10839.9,2598.03L10850.1,2588.58L10909.4,2653.17Z" style="fill:rgb(5,74,41);"/>
                                            </g>
                                        </g>
                                    </g>
                                </g>
                            </g>
                        </g>
                    </g>
                </g>
            </g>
            <g id="feuille-Site-W-V2.svg6" serif:id="feuille-Site-W-V2.svg" transform="matrix(0.896231,-1.63487,1.58179,0.867133,1626.67,1263.45)">
                <g transform="matrix(1,0,0,1,-64.5,-89)">
                    <clipPath id="_clip13">
                        <rect x="0" y="0" width="129" height="178"/>
                    </clipPath>
                    <g clip-path="url(#_clip13)">
                        <g transform="matrix(0.303031,0,0,0.303031,-3508.36,-966.254)">
                            <g>
                                <g>
                                    <g transform="matrix(1,0,0,1,1208.78,821.3)">
                                        <path d="M10465.1,2786.51L10490.4,2813.48C10490.4,2813.48 10431.4,2869.07 10403.8,2953.73L10368.6,2942.27C10399.3,2848.17 10465.1,2786.51 10465.1,2786.51Z" style="fill:rgb(5,74,41);"/>
                                    </g>
                                    <g transform="matrix(0.978197,0.564762,-0.5,0.866025,3032.44,-5093.32)">
                                        <path d="M10513.6,2706.93C10513.6,2706.93 10661.7,2794.89 10641,2997.93C10626.2,3143.12 10492.8,3271.66 10482.4,3279.5C10482.4,3279.5 10363.3,3219.68 10386.2,2997.93C10402.7,2838.41 10513.6,2706.93 10513.6,2706.93Z" style="fill:rgb(42,145,52);"/>
                                        <g>
                                            <clipPath id="_clip14">
                                                <path d="M10513.6,2706.93C10513.6,2706.93 10661.7,2794.89 10641,2997.93C10626.2,3143.12 10492.8,3271.66 10482.4,3279.5C10482.4,3279.5 10363.3,3219.68 10386.2,2997.93C10402.7,2838.41 10513.6,2706.93 10513.6,2706.93Z"/>
                                            </clipPath>
                                            <g clip-path="url(#_clip14)">
                                                <g transform="matrix(0.766717,-0.5,0.442664,0.866025,919.654,6282.52)">
                                                    <path d="M10861.2,2804.3L10850.3,2795.69C10973.5,2639.39 11078.9,2480.31 11166.5,2318.44L11178.7,2325.07C11090.8,2487.61 10984.9,2647.35 10861.2,2804.3Z" style="fill:rgb(5,74,41);"/>
                                                </g>
                                            </g>
                                        </g>
                                    </g>
                                    <g transform="matrix(1,0,0,1,790.13,866.204)">
                                        <g>
                                            <g transform="matrix(0.966948,0.324449,-0.286787,0.97878,1142.73,-3506.94)">
                                                <path d="M10945.2,2683.62L10935.3,2693.46L10859.3,2617.47L10869.2,2607.62L10945.2,2683.62Z" style="fill:rgb(5,74,41);"/>
                                            </g>
                                            <g transform="matrix(0.926964,0.425434,-0.389243,0.942733,1919.96,-4573.5)">
                                                <path d="M10933.1,2670.22L10923.3,2680.13L10832.4,2590.56L10842.2,2580.66L10933.1,2670.22Z" style="fill:rgb(5,74,41);"/>
                                            </g>
                                            <g transform="matrix(0.962413,0.337665,-0.300169,0.974759,1384.51,-3789.6)">
                                                <path d="M10909.4,2653.17L10899.2,2662.61L10839.9,2598.03L10850.1,2588.58L10909.4,2653.17Z" style="fill:rgb(5,74,41);"/>
                                            </g>
                                        </g>
                                    </g>
                                    <g transform="matrix(-1,0,0,-1,22846,5999.54)">
                                        <g>
                                            <g transform="matrix(0.56786,-0.831132,0.838484,0.556947,2500.71,10259.5)">
                                                <path d="M10958.7,2683.8L10949.7,2694.38L10859.7,2617.84L10868.8,2607.26L10958.7,2683.8Z" style="fill:rgb(5,74,41);"/>
                                            </g>
                                            <g transform="matrix(0.722518,-0.719877,0.747298,0.694119,1149.13,8554.04)">
                                                <path d="M10933.1,2670.22L10923.3,2680.13L10832.4,2590.56L10842.2,2580.66L10933.1,2670.22Z" style="fill:rgb(5,74,41);"/>
                                            </g>
                                            <g transform="matrix(0.98328,-0.766206,0.747343,0.886092,-1599.4,8451.08)">
                                                <path d="M10909.4,2653.17L10899.2,2662.61L10839.9,2598.03L10850.1,2588.58L10909.4,2653.17Z" style="fill:rgb(5,74,41);"/>
                                            </g>
                                        </g>
                                    </g>
                                </g>
                            </g>
                        </g>
                    </g>
                </g>
            </g>
            <g id="feuille-Site-W-V2.svg7" serif:id="feuille-Site-W-V2.svg" transform="matrix(1.32714,1.30947,-1.26696,1.28405,1815.32,1477.87)">
                <g transform="matrix(1,0,0,1,-64.5,-89)">
                    <clipPath id="_clip15">
                        <rect x="0" y="0" width="129" height="178"/>
                    </clipPath>
                    <g clip-path="url(#_clip15)">
                        <g transform="matrix(0.303031,0,0,0.303031,-3508.36,-966.254)">
                            <g>
                                <g>
                                    <g transform="matrix(1,0,0,1,1208.78,821.3)">
                                        <path d="M10465.1,2786.51L10490.4,2813.48C10490.4,2813.48 10431.4,2869.07 10403.8,2953.73L10368.6,2942.27C10399.3,2848.17 10465.1,2786.51 10465.1,2786.51Z" style="fill:rgb(5,74,41);"/>
                                    </g>
                                    <g transform="matrix(0.978197,0.564762,-0.5,0.866025,3032.44,-5093.32)">
                                        <path d="M10513.6,2706.93C10513.6,2706.93 10661.7,2794.89 10641,2997.93C10626.2,3143.12 10492.8,3271.66 10482.4,3279.5C10482.4,3279.5 10363.3,3219.68 10386.2,2997.93C10402.7,2838.41 10513.6,2706.93 10513.6,2706.93Z" style="fill:rgb(42,145,52);"/>
                                        <g>
                                            <clipPath id="_clip16">
                                                <path d="M10513.6,2706.93C10513.6,2706.93 10661.7,2794.89 10641,2997.93C10626.2,3143.12 10492.8,3271.66 10482.4,3279.5C10482.4,3279.5 10363.3,3219.68 10386.2,2997.93C10402.7,2838.41 10513.6,2706.93 10513.6,2706.93Z"/>
                                            </clipPath>
                                            <g clip-path="url(#_clip16)">
                                                <g transform="matrix(0.766717,-0.5,0.442664,0.866025,919.654,6282.52)">
                                                    <path d="M10861.2,2804.3L10850.3,2795.69C10973.5,2639.39 11078.9,2480.31 11166.5,2318.44L11178.7,2325.07C11090.8,2487.61 10984.9,2647.35 10861.2,2804.3Z" style="fill:rgb(5,74,41);"/>
                                                </g>
                                            </g>
                                        </g>
                                    </g>
                                    <g transform="matrix(1,0,0,1,790.13,866.204)">
                                        <g>
                                            <g transform="matrix(0.966948,0.324449,-0.286787,0.97878,1142.73,-3506.94)">
                                                <path d="M10945.2,2683.62L10935.3,2693.46L10859.3,2617.47L10869.2,2607.62L10945.2,2683.62Z" style="fill:rgb(5,74,41);"/>
                                            </g>
                                            <g transform="matrix(0.926964,0.425434,-0.389243,0.942733,1919.96,-4573.5)">
                                                <path d="M10933.1,2670.22L10923.3,2680.13L10832.4,2590.56L10842.2,2580.66L10933.1,2670.22Z" style="fill:rgb(5,74,41);"/>
                                            </g>
                                            <g transform="matrix(0.962413,0.337665,-0.300169,0.974759,1384.51,-3789.6)">
                                                <path d="M10909.4,2653.17L10899.2,2662.61L10839.9,2598.03L10850.1,2588.58L10909.4,2653.17Z" style="fill:rgb(5,74,41);"/>
                                            </g>
                                        </g>
                                    </g>
                                    <g transform="matrix(-1,0,0,-1,22846,5999.54)">
                                        <g>
                                            <g transform="matrix(0.56786,-0.831132,0.838484,0.556947,2500.71,10259.5)">
                                                <path d="M10958.7,2683.8L10949.7,2694.38L10859.7,2617.84L10868.8,2607.26L10958.7,2683.8Z" style="fill:rgb(5,74,41);"/>
                                            </g>
                                            <g transform="matrix(0.722518,-0.719877,0.747298,0.694119,1149.13,8554.04)">
                                                <path d="M10933.1,2670.22L10923.3,2680.13L10832.4,2590.56L10842.2,2580.66L10933.1,2670.22Z" style="fill:rgb(5,74,41);"/>
                                            </g>
                                            <g transform="matrix(0.98328,-0.766206,0.747343,0.886092,-1599.4,8451.08)">
                                                <path d="M10909.4,2653.17L10899.2,2662.61L10839.9,2598.03L10850.1,2588.58L10909.4,2653.17Z" style="fill:rgb(5,74,41);"/>
                                            </g>
                                        </g>
                                    </g>
                                </g>
                            </g>
                        </g>
                    </g>
                </g>
            </g>
            <g>
                <path d="M1702.98,1098.15C1697.38,1092.11 1696.18,1082.87 1700.62,1075.46C1706.02,1066.45 1717.7,1063.53 1726.7,1068.92C1728.03,1069.71 1731.78,1072.55 1735.5,1078.33C1740.83,1086.6 1751.73,1106.91 1757.58,1121.34C1766.13,1142.47 1771.23,1169.61 1776.04,1191.38C1800.22,1300.73 1764.41,1393.92 1697.22,1470.25C1632.24,1544.06 1537.45,1601.91 1441,1642.86C1079.18,1796.48 799.595,1735.01 669.46,1557.14C539.694,1379.77 555.866,1081.97 792.835,755.609C799.001,747.118 810.9,745.23 819.391,751.396C827.882,757.561 829.77,769.46 823.605,777.951C599.56,1086.51 577.46,1366.99 700.149,1534.69C822.469,1701.88 1086.05,1752.25 1426.14,1607.86C1517.33,1569.14 1607.24,1514.91 1668.68,1445.13C1727.89,1377.86 1760.22,1295.95 1738.91,1199.59C1734.52,1179.73 1730.13,1154.89 1722.33,1135.61C1717.27,1123.11 1704.75,1101.22 1702.98,1098.15Z" style="fill:rgb(61,153,10);"/>
            </g>
            <g id="earth-svgrepo-com.svg" transform="matrix(0.590584,0.236957,-0.222225,0.553866,1175.39,1275.92)">
                <g transform="matrix(1,0,0,1,-400,-400)">
                    <g>
                        <g>
                            <path d="M582.943,177.933L583.716,183.872L574.815,185.715L573.631,198.367L584.292,198.367L598.474,197.002L605.795,188.298L598.013,185.271L593.752,180.368L587.352,170.003L584.292,155.344L572.265,157.795L568.893,162.961L568.893,168.786L574.684,172.751L582.943,177.933Z" style="fill-rule:nonzero;"/>
                            <path d="M572.693,182.803L573.335,174.873L566.277,171.829L556.405,174.116L549.084,185.863L549.084,193.481L557.623,193.481L572.693,182.803Z" style="fill-rule:nonzero;"/>
                            <path d="M369.505,216.481L367.334,222.075L356.821,222.075L356.821,227.504L359.321,227.504C359.321,227.504 359.469,228.656 359.683,230.17L366.133,229.627L370.163,227.126L371.216,222.075L376.432,221.631L378.488,217.386L373.701,216.399L369.505,216.481Z" style="fill-rule:nonzero;"/>
                            <path d="M342.408,226.336L341.997,231.65L349.614,231.009L350.404,225.678L345.83,222.075L342.408,226.336Z" style="fill-rule:nonzero;"/>
                            <path d="M799.901,395.862C799.786,384.165 799.194,372.549 798.092,361.115C794.39,322.994 785.275,286.453 771.62,252.199C770.599,249.649 769.662,247.066 768.576,244.549C750.379,201.559 724.829,162.419 693.553,128.642C691.496,126.437 689.407,124.265 687.317,122.126C681.411,115.99 675.34,110.001 669.055,104.259C597.948,39.519 503.511,0 399.992,0C295.601,0 200.489,40.226 129.185,105.954C112.568,121.271 97.3,137.987 83.447,155.887C31.194,223.474 0,308.138 0,399.992C0,620.57 179.447,800 400.008,800C555.155,800 689.851,711.157 756.154,581.709C770.336,554.036 781.376,524.537 788.812,493.623C790.704,485.775 792.333,477.894 793.748,469.915C797.779,447.194 799.984,423.831 799.984,399.992C800,398.61 799.918,397.244 799.901,395.862ZM724.615,235.994L726.935,233.394C729.978,239.301 732.825,245.306 735.539,251.393L731.755,251.245L724.615,252.232L724.615,235.994ZM666.817,166.203L666.883,148.335C673.168,154.998 679.223,161.859 685.014,168.967L677.808,179.694L652.619,179.463L651.04,174.215L666.817,166.203ZM184.3,121.797L184.3,121.123L192.313,121.123L193.004,118.375L206.116,118.375L206.116,124.101L202.349,129.135L184.284,129.135L184.3,121.797ZM197.1,139.648C197.1,139.648 205.113,138.283 205.804,138.283C206.495,138.283 205.804,146.279 205.804,146.279L187.739,147.414L184.3,143.301L197.1,139.648ZM750.1,298.431L720.831,298.431L702.996,285.154L684.224,286.98L684.224,298.431L678.285,298.431L671.868,293.857L639.358,285.614L639.358,264.555L598.161,267.763L585.394,274.624L569.041,274.624L561.028,273.818L541.17,284.841L541.17,305.588L500.582,334.873L503.955,347.377L512.181,347.377L510.026,359.288L504.234,361.411L503.922,392.539L538.998,432.485L554.266,432.485L555.188,430.05L582.63,430.05L590.544,422.729L606.108,422.729L614.647,431.284L637.845,433.686L634.768,464.535L660.516,509.993L646.959,535.905L647.881,548.113L658.558,558.758L658.558,588.109L672.576,606.963L672.576,631.346L684.685,631.346C617.296,714.085 514.731,767.079 399.975,767.079C197.577,767.095 32.905,602.406 32.905,399.992C32.905,349.039 43.369,300.471 62.207,256.329L62.207,244.878L75.336,228.936C79.893,220.331 84.779,211.94 89.995,203.763L90.587,210.427L75.352,228.936C70.63,237.853 66.221,246.968 62.223,256.329L62.223,277.224L77.475,284.561L77.475,313.6L92.101,338.558L103.996,340.385L105.526,331.829L91.492,310.178L88.744,289.135L96.971,289.135L100.442,310.787L120.728,340.385L115.496,349.943L128.395,369.67L160.428,377.6L160.428,372.417L173.244,374.244L172.027,383.391L182.096,385.234L197.643,389.479L219.607,414.503L247.659,416.625L250.406,439.511L231.206,452.936L230.301,473.37L227.554,485.874L255.325,520.638L257.448,532.549C257.448,532.549 267.517,535.28 268.751,535.28C269.968,535.28 291.323,551.453 291.323,551.453L291.323,614.285L298.941,616.424L293.758,645.413L306.575,662.507L304.206,691.233L321.135,720.995L342.869,739.981L364.718,740.376L366.857,733.351L350.799,719.827L351.72,713.115L354.599,704.888L355.208,696.498L344.35,696.169L338.871,689.292L347.887,680.621L349.104,674.073L339.035,671.194L339.628,665.106L353.974,662.935L375.79,652.454L383.112,639.029L405.997,609.744L400.798,586.842L407.823,574.651L428.866,575.293L443.031,564.072L447.605,519.881L463.317,499.924L466.065,487.107L451.735,482.517L442.275,467.003L409.946,466.674L384.313,456.901L383.095,438.622L374.54,423.667L351.358,423.321L337.966,402.295L326.071,396.487L325.462,402.904L303.811,404.187L295.881,393.148L273.292,388.557L254.684,410.061L225.398,405.092L223.276,372.088L201.904,368.436L210.476,352.247L208.025,342.951L179.94,361.723L162.27,359.568L155.969,345.765L159.819,331.533L169.559,313.584L191.984,302.231L235.286,302.215L235.171,315.426L250.735,322.665L249.501,300.093L260.722,288.806L283.36,273.933L284.907,263.469L307.48,239.975L331.484,226.682L329.361,224.938L345.616,209.637L351.572,211.216L354.303,214.639L360.473,207.794L361.987,207.12L355.225,206.166L348.364,203.879L348.364,197.298L352,194.32L360.012,194.32L363.681,195.932L366.857,202.349L370.739,201.756L370.739,201.197L371.858,201.575L383.112,199.848L384.707,194.353L391.124,195.965L391.124,201.921L385.168,206.017L385.185,206.017L386.057,212.549L406.441,218.834C406.441,218.834 406.458,218.916 406.49,219.081L411.179,218.686L411.492,209.851L395.336,202.497L394.414,198.252L407.823,193.678L408.415,180.845L394.398,172.306L393.477,150.671L374.26,160.115L367.251,160.115L369.094,143.646L342.935,137.477L332.109,145.653L332.109,170.595L312.646,176.765L304.847,193.02L296.391,194.386L296.391,173.59L278.096,171.056L268.948,165.1L265.263,151.626L297.987,132.475L313.995,127.605L315.607,138.365L324.524,137.904L325.215,132.492L334.544,131.159L334.708,129.267L330.694,127.605L329.773,121.88L341.24,120.909L348.167,113.703L348.545,113.176L348.627,113.209L350.733,111.038L374.836,107.994L385.497,117.043L357.544,131.932L393.115,140.323L397.721,128.428L413.269,128.428L418.764,118.063L407.774,115.315L407.774,102.203L373.306,86.935L349.516,89.682L336.09,96.707L337.012,113.785L322.978,111.646L320.823,102.203L334.264,89.995L309.865,88.777L302.857,90.9L299.813,99.126L308.96,100.672L307.134,109.82L291.587,110.741L289.152,116.829L266.595,117.454C266.595,117.454 265.97,104.654 265.065,104.654C264.16,104.654 282.752,104.341 282.752,104.341L296.193,91.212L288.856,87.543L279.099,97.02L262.91,96.099L253.154,82.674L232.407,82.674L210.756,98.846L230.597,98.846L232.407,104.654L227.258,109.442L249.222,110.05L252.578,117.98L227.85,117.059L226.649,110.955L211.101,107.599L202.859,103.025L184.35,103.173C244.944,59.031 319.457,32.905 399.992,32.905C492.816,32.905 577.629,67.603 642.336,124.611L637.976,132.409L621.047,139.04L613.906,146.789L615.552,155.821L624.288,157.039L629.553,170.201L644.623,164.13L647.107,181.734L642.567,181.734L630.194,179.907L616.473,182.211L603.196,200.967L584.21,203.944L581.462,220.199L589.475,222.092L587.155,232.539L568.3,228.755L551.009,232.539L547.34,242.163L550.334,262.367L560.485,267.122L577.514,267.023L589.014,265.987L592.518,256.839L610.484,233.493L622.314,235.912L633.962,225.382L636.134,233.608L664.794,252.94L661.289,257.645L648.374,256.954L653.343,263.996L661.289,265.74L670.602,261.857L670.404,250.637L674.534,248.563L671.21,245.043L652.093,234.381L647.058,220.216L662.951,220.216L668.035,225.25L681.723,237.047L682.299,251.311L696.481,266.414L701.762,245.717L711.585,240.354L713.427,257.283L723.019,267.813L742.153,267.484C745.855,277.01 749.178,286.7 752.09,296.588L750.1,298.431ZM218.176,181.734L227.784,177.16L236.471,179.233L233.477,190.898L224.099,193.876L218.176,181.734ZM269.162,209.193L269.162,216.744L247.214,216.744L238.988,214.458L241.045,209.193L251.591,204.833L266.003,204.833L266.003,209.193L269.162,209.193ZM279.264,219.722L279.264,227.044L273.769,230.581L266.924,231.848L266.924,219.722L279.264,219.722ZM273.078,216.744L273.078,208.041L280.629,214.918L273.078,216.744ZM276.516,234.349L276.516,241.472L271.268,246.737L259.603,246.737L261.429,238.741L266.941,238.264L268.076,235.517L276.516,234.349ZM247.461,219.722L259.587,219.722L244.039,241.456L237.623,238.017L239.005,228.87L247.461,219.722ZM297.115,231.848L297.115,238.955L285.45,238.955L282.258,234.349L282.258,227.735L283.179,227.735L297.115,231.848ZM286.338,222.075L289.662,218.587L295.272,222.075L290.78,225.777L286.338,222.075ZM756.056,316.956L757.207,315.607C757.684,317.68 758.194,319.753 758.655,321.859L756.056,316.956Z" style="fill-rule:nonzero;"/>
                            <path d="M62.223,244.878L62.223,256.329C66.221,246.984 70.63,237.869 75.352,228.936L62.223,244.878Z" style="fill-rule:nonzero;"/>
                        </g>
                    </g>
                </g>
            </g>
        </g>
    </g>
</svg>
